<svg width="1280" height="68" viewBox="0 0 1280 68" fill="none" xmlns="http://www.w3.org/2000/svg">
<mask id="path-1-inside-1_1_4927" fill="white">
<path d="M32 0H1248V64H32V0Z"/>
</mask>
<path d="M32 1H1248V-1H32V1Z" fill="#7F56D9" mask="url(#path-1-inside-1_1_4927)"/>
<g filter="url(#filter0_dddi_1_4927)">
<g clip-path="url(#clip0_1_4927)">
<path d="M32 44.8C32 40.3196 32 38.0794 32.8719 36.3681C33.6389 34.8628 34.8628 33.6389 36.3681 32.8719C38.0794 32 40.3196 32 44.8 32H51.2C55.6804 32 57.9206 32 59.6319 32.8719C61.1372 33.6389 62.3611 34.8628 63.1281 36.3681C64 38.0794 64 40.3196 64 44.8V51.2C64 55.6804 64 57.9206 63.1281 59.6319C62.3611 61.1372 61.1372 62.3611 59.6319 63.1281C57.9206 64 55.6804 64 51.2 64H44.8C40.3196 64 38.0794 64 36.3681 63.1281C34.8628 62.3611 33.6389 61.1372 32.8719 59.6319C32 57.9206 32 55.6804 32 51.2V44.8Z" fill="white"/>
<path d="M32 44.8C32 40.3196 32 38.0794 32.8719 36.3681C33.6389 34.8628 34.8628 33.6389 36.3681 32.8719C38.0794 32 40.3196 32 44.8 32H51.2C55.6804 32 57.9206 32 59.6319 32.8719C61.1372 33.6389 62.3611 34.8628 63.1281 36.3681C64 38.0794 64 40.3196 64 44.8V51.2C64 55.6804 64 57.9206 63.1281 59.6319C62.3611 61.1372 61.1372 62.3611 59.6319 63.1281C57.9206 64 55.6804 64 51.2 64H44.8C40.3196 64 38.0794 64 36.3681 63.1281C34.8628 62.3611 33.6389 61.1372 32.8719 59.6319C32 57.9206 32 55.6804 32 51.2V44.8Z" fill="url(#paint0_linear_1_4927)" fill-opacity="0.2"/>
<g opacity="0.14" clip-path="url(#clip1_1_4927)">
<path fill-rule="evenodd" clip-rule="evenodd" d="M47.9612 32H48.0388V33.9612C49.8929 33.9663 51.6625 34.3307 53.2816 34.9885V32H53.3592V35.0204C54.7339 35.5886 55.9986 36.3688 57.1126 37.3203H58.602V32H58.6796V37.3203H64V37.398H58.6796V38.8873C59.6311 40.0013 60.4113 41.266 60.9796 42.6406H64V42.7183H61.0114C61.6693 44.3373 62.0337 46.1069 62.0388 47.9609H64V48.0386H62.0388C62.0338 49.8927 61.6694 51.6622 61.0116 53.2812H64V53.3589H60.9798C60.4115 54.7337 59.6312 55.9986 58.6796 57.1128V58.6016H64V58.6792H58.6796V64H58.602V58.6792H57.1132C55.999 59.6309 54.7341 60.4113 53.3592 60.9797V64H53.2816V61.0115C51.6625 61.6693 49.8929 62.0338 48.0388 62.0388V64H47.9612V62.0388C46.1071 62.0338 44.3375 61.6693 42.7184 61.0115V64H42.6408V60.9797C41.2659 60.4113 40.001 59.6309 38.8868 58.6792H37.398V64H37.3204V58.6792H32V58.6016H37.3204V57.1128C36.3688 55.9986 35.5885 54.7337 35.0202 53.3589H32V53.2812H34.9884C34.3306 51.6622 33.9662 49.8927 33.9612 48.0386H32V47.9609H33.9612C33.9663 46.1069 34.3307 44.3373 34.9886 42.7183H32V42.6406H35.0204C35.5887 41.266 36.3689 40.0013 37.3204 38.8873V37.398H32V37.3203H37.3204V32H37.398V37.3203H38.8874C40.0014 36.3688 41.2661 35.5886 42.6408 35.0204V32H42.7184V34.9885C44.3375 34.3307 46.1071 33.9663 47.9612 33.9612V32ZM47.9612 34.0389C46.1062 34.044 44.3364 34.4107 42.7184 35.0724V37.3203H47.9612V34.0389ZM42.6408 35.1045C41.3137 35.6566 40.0902 36.4076 39.0074 37.3203H42.6408V35.1045ZM38.7972 37.398H37.398V38.7971C37.8311 38.2987 38.2987 37.831 38.7972 37.398ZM37.398 38.916C37.8645 38.3721 38.3721 37.8645 38.9161 37.398H42.6408V42.6406H37.398V38.916ZM37.3204 39.0073C36.4077 40.0901 35.6567 41.3136 35.1045 42.6406H37.3204V39.0073ZM35.0725 42.7183C34.4108 44.3362 34.044 46.106 34.0389 47.9609H37.3204V42.7183H35.0725ZM34.0389 48.0386C34.0439 49.8935 34.4107 51.6633 35.0723 53.2812H37.3204V48.0386H34.0389ZM35.1043 53.3589C35.6565 54.6861 36.4076 55.9098 37.3204 56.9927V53.3589H35.1043ZM37.398 57.2029V58.6016H38.7966C38.2984 58.1686 37.8309 57.7012 37.398 57.2029ZM38.9155 58.6016C38.3718 58.1352 37.8644 57.6278 37.398 57.0841V53.3589H42.6408V58.6016H38.9155ZM39.0068 58.6792C40.0898 59.5921 41.3135 60.3433 42.6408 60.8955V58.6792H39.0068ZM42.7184 60.9276C44.3364 61.5893 46.1062 61.9561 47.9612 61.9611V58.6792H42.7184V60.9276ZM48.0388 61.9611C49.8937 61.9561 51.6636 61.5893 53.2816 60.9276V58.6792H48.0388V61.9611ZM53.3592 60.8955C54.6865 60.3433 55.9102 59.5921 56.9932 58.6792H53.3592V60.8955ZM57.2034 58.6016H58.602V57.2029C58.1691 57.7012 57.7016 58.1686 57.2034 58.6016ZM58.602 57.0841C58.1356 57.6278 57.6282 58.1352 57.0845 58.6016H53.3592V53.3589H58.602V57.0841ZM58.6796 56.9927C59.5924 55.9098 60.3435 54.6861 60.8957 53.3589H58.6796V56.9927ZM60.9277 53.2812C61.5894 51.6633 61.9561 49.8935 61.9611 48.0386H58.6796V53.2812H60.9277ZM61.9611 47.9609C61.956 46.1061 61.5892 44.3362 60.9275 42.7183H58.6796V47.9609H61.9611ZM60.8955 42.6406C60.3433 41.3136 59.5923 40.0901 58.6796 39.0073V42.6406H60.8955ZM58.602 38.7971V37.398H57.2028C57.7013 37.831 58.1689 38.2987 58.602 38.7971ZM57.0839 37.398C57.6279 37.8645 58.1355 38.3721 58.602 38.916V42.6406H53.3592V37.398H57.0839ZM56.9926 37.3203C55.9098 36.4076 54.6863 35.6566 53.3592 35.1045V37.3203H56.9926ZM53.2816 35.0724C51.6636 34.4107 49.8937 34.044 48.0388 34.0389V37.3203H53.2816V35.0724ZM42.7184 37.398H47.9612V42.6406H42.7184V37.398ZM53.2816 37.398H48.0388V42.6406H53.2816V37.398ZM42.6408 53.2812H37.398V48.0386H42.6408V53.2812ZM42.7184 53.3589V58.6016H47.9612V53.3589H42.7184ZM47.9612 53.2812H42.7184V48.0386H47.9612V53.2812ZM48.0388 53.3589V58.6016H53.2816V53.3589H48.0388ZM53.2816 53.2812H48.0388V48.0386H53.2816V53.2812ZM58.602 53.2812H53.3592V48.0386H58.602V53.2812ZM42.7184 42.7183H47.9612V47.9609H42.7184V42.7183ZM37.398 42.7183L42.6408 42.7183V47.9609H37.398V42.7183ZM53.2816 42.7183H48.0388V47.9609H53.2816V42.7183ZM53.3592 47.9609V42.7183L58.602 42.7183V47.9609H53.3592Z" fill="#0A0D12"/>
</g>
<g filter="url(#filter1_dd_1_4927)">
<rect x="40" y="40" width="16" height="16" rx="8" fill="url(#paint1_linear_1_4927)"/>
<rect x="40" y="40" width="16" height="16" rx="8" fill="url(#paint2_radial_1_4927)" fill-opacity="0.08"/>
<rect x="40" y="40" width="16" height="16" rx="8" fill="url(#paint3_radial_1_4927)" fill-opacity="0.18"/>
<rect x="40" y="40" width="16" height="16" rx="8" fill="url(#paint4_radial_1_4927)" fill-opacity="0.05"/>
<path d="M52.8 44.0414C52.8 45.3898 50.651 44.5297 48 44.5297C45.349 44.5297 43.2 45.3898 43.2 44.0414C43.2 42.693 45.349 41.6 48 41.6C50.651 41.6 52.8 42.693 52.8 44.0414Z" fill="url(#paint5_linear_1_4927)" fill-opacity="0.4"/>
</g>
<g filter="url(#filter2_b_1_4927)">
<path d="M32 48H64V51.2C64 55.6804 64 57.9206 63.1281 59.6319C62.3611 61.1372 61.1372 62.3611 59.6319 63.1281C57.9206 64 55.6804 64 51.2 64H44.8C40.3196 64 38.0794 64 36.3681 63.1281C34.8628 62.3611 33.6389 61.1372 32.8719 59.6319C32 57.9206 32 55.6804 32 51.2V48Z" fill="white" fill-opacity="0.2"/>
</g>
</g>
<path d="M32.1 44.8C32.1 42.5581 32.1001 40.8828 32.2087 39.5538C32.3171 38.2259 32.5335 37.2527 32.961 36.4135C33.7184 34.927 34.927 33.7184 36.4135 32.961C37.2527 32.5335 38.2259 32.3171 39.5538 32.2087C40.8828 32.1001 42.5581 32.1 44.8 32.1H51.2C53.4419 32.1 55.1172 32.1001 56.4462 32.2087C57.7741 32.3171 58.7473 32.5335 59.5865 32.961C61.073 33.7184 62.2816 34.927 63.039 36.4135C63.4665 37.2527 63.6828 38.2259 63.7913 39.5538C63.8999 40.8828 63.9 42.5581 63.9 44.8V51.2C63.9 53.4419 63.8999 55.1172 63.7913 56.4462C63.6828 57.7741 63.4665 58.7473 63.039 59.5865C62.2816 61.073 61.073 62.2816 59.5865 63.039C58.7473 63.4665 57.7741 63.6828 56.4462 63.7913C55.1172 63.8999 53.4419 63.9 51.2 63.9H44.8C42.5581 63.9 40.8828 63.8999 39.5538 63.7913C38.2259 63.6828 37.2527 63.4665 36.4135 63.039C34.927 62.2816 33.7184 61.073 32.961 59.5865C32.5335 58.7473 32.3171 57.7741 32.2087 56.4462C32.1001 55.1172 32.1 53.4419 32.1 51.2V44.8Z" stroke="#0A0D12" stroke-opacity="0.12" stroke-width="0.2"/>
</g>
<path d="M107.91 42.2372C108.232 42.5355 108.618 42.6846 109.068 42.6846C109.518 42.6846 109.901 42.5355 110.218 42.2372C110.54 41.9341 110.701 41.5719 110.701 41.1505C110.701 40.7339 110.54 40.3764 110.218 40.0781C109.901 39.7751 109.518 39.6235 109.068 39.6235C108.618 39.6235 108.232 39.7751 107.91 40.0781C107.593 40.3764 107.434 40.7339 107.434 41.1505C107.434 41.5719 107.593 41.9341 107.91 42.2372Z" fill="white"/>
<path d="M85.2997 52.6846C85.8063 51.8892 86.0597 50.9611 86.0597 49.9005V40.4545H82.9844V49.6377C82.9844 50.1917 82.8613 50.6841 82.6151 51.115C82.3736 51.5459 82.0303 51.8844 81.5852 52.1306C81.1449 52.3769 80.6264 52.5 80.0298 52.5C79.438 52.5 78.9195 52.3769 78.4744 52.1306C78.0294 51.8844 77.6837 51.5459 77.4375 51.115C77.196 50.6841 77.0753 50.1917 77.0753 49.6377V40.4545H74V49.9005C74 50.9611 74.2509 51.8892 74.7528 52.6846C75.2547 53.4801 75.9579 54.1003 76.8622 54.5454C77.7666 54.9858 78.8224 55.2059 80.0298 55.2059C81.2325 55.2059 82.286 54.9858 83.1903 54.5454C84.0947 54.1003 84.7978 53.4801 85.2997 52.6846Z" fill="white"/>
<path d="M92.3589 44.5099C91.7907 44.8792 91.3859 45.3811 91.1444 46.0156H91.0165V44.0909H88.133V55H91.1586V48.6931C91.1633 48.2244 91.2509 47.8243 91.4214 47.4929C91.5966 47.1567 91.838 46.901 92.1458 46.7258C92.4583 46.5506 92.8182 46.463 93.2254 46.463C93.8314 46.463 94.3073 46.6524 94.6529 47.0312C94.9986 47.4053 95.169 47.9261 95.1643 48.5937V55H98.1898V48.0539C98.1898 47.2064 98.0336 46.4772 97.7211 45.8664C97.4086 45.2509 96.9706 44.7774 96.4072 44.446C95.8437 44.1145 95.1832 43.9488 94.4256 43.9488C93.616 43.9488 92.9271 44.1358 92.3589 44.5099Z" fill="white"/>
<path d="M101.346 53.821C101.043 53.3522 100.894 52.7604 100.899 52.0454V46.3636H99.4074V44.0909H100.899V41.4772H103.924V44.0909H105.977V46.3636H103.924V51.6477C103.924 51.927 103.967 52.1448 104.052 52.3011C104.138 52.4526 104.256 52.5591 104.407 52.6207C104.564 52.6822 104.744 52.713 104.947 52.713C105.089 52.713 105.231 52.7012 105.373 52.6775C105.515 52.6491 105.624 52.6278 105.7 52.6136L106.176 54.865C106.024 54.9124 105.811 54.9668 105.537 55.0284C105.262 55.0947 104.928 55.1349 104.535 55.1491C103.806 55.1775 103.167 55.0804 102.618 54.8579C102.073 54.6354 101.649 54.2897 101.346 53.821Z" fill="white"/>
<path d="M113.769 53.821C113.466 53.3522 113.317 52.7604 113.322 52.0454V46.3636H111.83V44.0909H113.322V41.4772H116.347V44.0909H118.4V46.3636H116.347V51.6477C116.347 51.927 116.39 52.1448 116.475 52.3011C116.56 52.4526 116.679 52.5591 116.83 52.6207C116.986 52.6822 117.166 52.713 117.37 52.713C117.512 52.713 117.654 52.7012 117.796 52.6775C117.938 52.6491 118.047 52.6278 118.123 52.6136L118.599 54.865C118.447 54.9124 118.234 54.9668 117.959 55.0284C117.685 55.0947 117.351 55.1349 116.958 55.1491C116.229 55.1775 115.59 55.0804 115.04 54.8579C114.496 54.6354 114.072 54.2897 113.769 53.821Z" fill="white"/>
<path fill-rule="evenodd" clip-rule="evenodd" d="M130.226 55.213C129.104 55.213 128.138 54.9858 127.328 54.5312C126.523 54.0719 125.903 53.4233 125.467 52.5852C125.032 51.7424 124.814 50.7457 124.814 49.5951C124.814 48.473 125.032 47.4881 125.467 46.6406C125.903 45.793 126.516 45.1325 127.307 44.659C128.102 44.1856 129.035 43.9488 130.105 43.9488C130.825 43.9488 131.495 44.0648 132.115 44.2968C132.74 44.5241 133.284 44.8674 133.748 45.3267C134.217 45.7859 134.582 46.3636 134.842 47.0596C135.103 47.7509 135.233 48.5606 135.233 49.4886V50.3196H127.804V50.3267C127.804 50.8664 127.903 51.3328 128.102 51.7258C128.306 52.1188 128.592 52.4218 128.962 52.6349C129.331 52.848 129.769 52.9545 130.275 52.9545C130.612 52.9545 130.919 52.9072 131.199 52.8125C131.478 52.7178 131.717 52.5757 131.916 52.3863C132.115 52.1969 132.266 51.9649 132.371 51.6903L135.169 51.875C135.027 52.5473 134.736 53.1344 134.295 53.6363C133.86 54.1335 133.296 54.5217 132.605 54.8011C131.918 55.0757 131.125 55.213 130.226 55.213ZM128.109 47.3721C127.926 47.6953 127.825 48.0528 127.807 48.4446H132.385C132.385 48.009 132.29 47.6231 132.101 47.2869C131.911 46.9507 131.649 46.6879 131.312 46.4985C130.981 46.3044 130.595 46.2073 130.155 46.2073C129.695 46.2073 129.288 46.3139 128.933 46.5269C128.583 46.7353 128.308 47.017 128.109 47.3721Z" fill="white"/>
<path fill-rule="evenodd" clip-rule="evenodd" d="M138.576 54.5383C139.248 54.9644 139.999 55.1775 140.827 55.1775C141.414 55.1775 141.911 55.0804 142.319 54.8863C142.731 54.6922 143.064 54.4483 143.32 54.1548C143.58 53.8565 143.782 53.5558 143.924 53.2528H144.052V55H147.035V40.4545H144.016V45.9233H143.924C143.791 45.6297 143.597 45.3314 143.341 45.0284C143.09 44.7206 142.759 44.4649 142.347 44.2613C141.94 44.053 141.431 43.9488 140.82 43.9488C140.02 43.9488 139.284 44.1572 138.611 44.5738C137.944 44.9858 137.409 45.6084 137.006 46.4417C136.604 47.2703 136.402 48.3096 136.402 49.5596C136.402 50.7765 136.597 51.8039 136.985 52.642C137.378 53.4753 137.908 54.1074 138.576 54.5383ZM143.022 52.3721C142.686 52.6373 142.274 52.7698 141.786 52.7698C141.289 52.7698 140.87 52.6349 140.529 52.365C140.193 52.0904 139.935 51.7116 139.755 51.2286C139.58 50.741 139.492 50.1799 139.492 49.5454C139.492 48.9157 139.58 48.3617 139.755 47.8835C139.93 47.4053 140.188 47.0312 140.529 46.7613C140.87 46.4914 141.289 46.3565 141.786 46.3565C142.274 46.3565 142.688 46.4867 143.029 46.7471C143.37 47.0075 143.63 47.3768 143.81 47.8551C143.99 48.3333 144.08 48.8967 144.08 49.5454C144.08 50.1941 143.988 50.7599 143.803 51.2429C143.623 51.7258 143.363 52.1022 143.022 52.3721Z" fill="white"/>
<path d="M162.023 51.115C162.269 50.6841 162.392 50.1917 162.392 49.6377V40.4545H165.467V49.9005C165.467 50.9611 165.214 51.8892 164.708 52.6846C164.206 53.4801 163.503 54.1003 162.598 54.5454C161.694 54.9858 160.64 55.2059 159.438 55.2059C158.23 55.2059 157.174 54.9858 156.27 54.5454C155.366 54.1003 154.663 53.4801 154.161 52.6846C153.659 51.8892 153.408 50.9611 153.408 49.9005V40.4545H156.483V49.6377C156.483 50.1917 156.604 50.6841 156.845 51.115C157.092 51.5459 157.437 51.8844 157.882 52.1306C158.327 52.3769 158.846 52.5 159.438 52.5C160.034 52.5 160.553 52.3769 160.993 52.1306C161.438 51.8844 161.781 51.5459 162.023 51.115Z" fill="white"/>
<path d="M107.548 44.0909V55H110.573V44.0909H107.548Z" fill="white"/>
<path d="M123.23 55V40.4545H120.205V55H123.23Z" fill="white"/>
<path d="M170.673 55V40.4545H167.598V55H170.673Z" fill="white"/>
<path d="M959 48.1818C959 47.5606 959.152 46.9943 959.455 46.483C959.758 45.9716 960.165 45.5644 960.676 45.2614C961.188 44.9583 961.754 44.8068 962.375 44.8068C962.913 44.8068 963.409 44.9223 963.864 45.1534C964.322 45.3845 964.701 45.7008 965 46.1023C965.299 46.5 965.485 46.9508 965.557 47.4545H964.182C964.106 47.0644 963.896 46.7462 963.551 46.5C963.206 46.25 962.814 46.125 962.375 46.125C961.996 46.125 961.652 46.2178 961.341 46.4034C961.03 46.589 960.782 46.8371 960.597 47.1477C960.411 47.4583 960.318 47.803 960.318 48.1818C960.318 48.5606 960.411 48.9053 960.597 49.2159C960.782 49.5265 961.03 49.7746 961.341 49.9602C961.652 50.1458 961.996 50.2386 962.375 50.2386C962.814 50.2386 963.186 50.1155 963.489 49.8693C963.795 49.6193 963.989 49.2992 964.068 48.9091H965.443C965.371 49.4129 965.195 49.8655 964.915 50.267C964.634 50.6648 964.275 50.9792 963.835 51.2102C963.4 51.4413 962.913 51.5568 962.375 51.5568C961.754 51.5568 961.188 51.4053 960.676 51.1023C960.165 50.7992 959.758 50.392 959.455 49.8807C959.152 49.3693 959 48.803 959 48.1818ZM962.318 54.1818C961.492 54.1818 960.716 54.0265 959.989 53.7159C959.265 53.4053 958.627 52.9754 958.074 52.4261C957.525 51.8731 957.093 51.2348 956.778 50.5114C956.468 49.7879 956.314 49.0114 956.318 48.1818C956.322 47.3523 956.479 46.5758 956.79 45.8523C957.104 45.1288 957.536 44.4924 958.085 43.9432C958.634 43.3902 959.271 42.9583 959.994 42.6477C960.718 42.3371 961.492 42.1818 962.318 42.1818C963.148 42.1818 963.924 42.3371 964.648 42.6477C965.375 42.9583 966.011 43.3902 966.557 43.9432C967.106 44.4924 967.536 45.1288 967.847 45.8523C968.157 46.5758 968.314 47.3523 968.318 48.1818C968.322 49.0114 968.169 49.7879 967.858 50.5114C967.547 51.2348 967.117 51.8731 966.568 52.4261C966.019 52.9754 965.381 53.4053 964.653 53.7159C963.926 54.0265 963.148 54.1818 962.318 54.1818ZM962.318 52.8636C962.966 52.8636 963.574 52.7424 964.142 52.5C964.71 52.2576 965.208 51.9223 965.636 51.4943C966.064 51.0663 966.4 50.5701 966.642 50.0057C966.884 49.4375 967.004 48.8314 967 48.1875C966.996 47.5398 966.873 46.9318 966.631 46.3636C966.388 45.7955 966.053 45.2973 965.625 44.8693C965.197 44.4413 964.701 44.1061 964.136 43.8636C963.572 43.6212 962.966 43.5 962.318 43.5C961.674 43.5 961.07 43.6212 960.506 43.8636C959.941 44.1061 959.445 44.4432 959.017 44.875C958.589 45.303 958.252 45.8011 958.006 46.3693C957.763 46.9337 957.64 47.5398 957.636 48.1875C957.633 48.8277 957.752 49.4318 957.994 50C958.237 50.5644 958.572 51.0606 959 51.4886C959.432 51.9167 959.93 52.2538 960.494 52.5C961.063 52.7424 961.67 52.8636 962.318 52.8636ZM975.345 54V52.9773L979.186 48.7727C979.637 48.2803 980.008 47.8523 980.3 47.4886C980.591 47.1212 980.807 46.7765 980.947 46.4545C981.091 46.1288 981.163 45.7879 981.163 45.4318C981.163 45.0227 981.065 44.6686 980.868 44.3693C980.675 44.0701 980.41 43.839 980.072 43.6761C979.735 43.5133 979.357 43.4318 978.936 43.4318C978.489 43.4318 978.099 43.5246 977.766 43.7102C977.436 43.892 977.18 44.1477 976.999 44.4773C976.821 44.8068 976.732 45.1932 976.732 45.6364H975.391C975.391 44.9545 975.548 44.3561 975.862 43.8409C976.177 43.3258 976.605 42.9242 977.146 42.6364C977.692 42.3485 978.304 42.2045 978.982 42.2045C979.663 42.2045 980.268 42.3485 980.794 42.6364C981.321 42.9242 981.733 43.3125 982.033 43.8011C982.332 44.2898 982.482 44.8333 982.482 45.4318C982.482 45.8598 982.404 46.2784 982.249 46.6875C982.097 47.0928 981.832 47.5455 981.453 48.0455C981.078 48.5417 980.557 49.1477 979.891 49.8636L977.277 52.6591V52.75H982.686V54H975.345ZM988.828 54.1591C987.972 54.1591 987.243 53.9261 986.641 53.4602C986.038 52.9905 985.578 52.3106 985.26 51.4205C984.942 50.5265 984.783 49.447 984.783 48.1818C984.783 46.9242 984.942 45.8504 985.26 44.9602C985.582 44.0663 986.044 43.3845 986.646 42.9148C987.252 42.4413 987.98 42.2045 988.828 42.2045C989.677 42.2045 990.402 42.4413 991.004 42.9148C991.61 43.3845 992.072 44.0663 992.391 44.9602C992.713 45.8504 992.874 46.9242 992.874 48.1818C992.874 49.447 992.714 50.5265 992.396 51.4205C992.078 52.3106 991.618 52.9905 991.016 53.4602C990.413 53.9261 989.684 54.1591 988.828 54.1591ZM988.828 52.9091C989.677 52.9091 990.336 52.5 990.805 51.6818C991.275 50.8636 991.51 49.697 991.51 48.1818C991.51 47.1742 991.402 46.3163 991.186 45.608C990.974 44.8996 990.667 44.3598 990.266 43.9886C989.868 43.6174 989.389 43.4318 988.828 43.4318C987.987 43.4318 987.33 43.8466 986.857 44.6761C986.383 45.5019 986.146 46.6705 986.146 48.1818C986.146 49.1894 986.252 50.0455 986.464 50.75C986.677 51.4545 986.982 51.9905 987.379 52.358C987.781 52.7254 988.264 52.9091 988.828 52.9091ZM995.084 54L1000.29 43.7045V43.6136H994.288V42.3636H1001.74V43.6818L996.561 54H995.084ZM1004.54 54L1009.74 43.7045V43.6136H1003.74V42.3636H1011.2V43.6818L1006.01 54H1004.54ZM1025.65 42.3636H1027.06V50.0682C1027.06 50.8636 1026.88 51.5739 1026.5 52.1989C1026.13 52.8201 1025.61 53.3106 1024.93 53.6705C1024.25 54.0265 1023.45 54.2045 1022.54 54.2045C1021.63 54.2045 1020.83 54.0265 1020.15 53.6705C1019.48 53.3106 1018.95 52.8201 1018.58 52.1989C1018.2 51.5739 1018.02 50.8636 1018.02 50.0682V42.3636H1019.43V49.9545C1019.43 50.5227 1019.55 51.0284 1019.8 51.4716C1020.05 51.911 1020.41 52.2576 1020.87 52.5114C1021.34 52.7614 1021.89 52.8864 1022.54 52.8864C1023.19 52.8864 1023.75 52.7614 1024.21 52.5114C1024.68 52.2576 1025.03 51.911 1025.28 51.4716C1025.53 51.0284 1025.65 50.5227 1025.65 49.9545V42.3636ZM1031.04 48.75V54H1029.7V45.2727H1030.99V46.6364H1031.11C1031.31 46.1932 1031.62 45.8371 1032.04 45.5682C1032.45 45.2955 1032.99 45.1591 1033.65 45.1591C1034.24 45.1591 1034.76 45.2803 1035.2 45.5227C1035.64 45.7614 1035.99 46.125 1036.24 46.6136C1036.48 47.0985 1036.61 47.7121 1036.61 48.4545V54H1035.26V48.5455C1035.26 47.8598 1035.09 47.3258 1034.73 46.9432C1034.37 46.5568 1033.89 46.3636 1033.26 46.3636C1032.84 46.3636 1032.45 46.4564 1032.12 46.642C1031.78 46.8277 1031.52 47.0985 1031.33 47.4545C1031.13 47.8106 1031.04 48.2424 1031.04 48.75ZM1042.85 45.2727V46.4091H1038.33V45.2727H1042.85ZM1039.65 43.1818H1040.99V51.5C1040.99 51.8788 1041.04 52.1629 1041.15 52.3523C1041.27 52.5379 1041.41 52.6629 1041.58 52.7273C1041.76 52.7879 1041.95 52.8182 1042.15 52.8182C1042.29 52.8182 1042.42 52.8106 1042.51 52.7955C1042.6 52.7765 1042.68 52.7614 1042.74 52.75L1043.01 53.9545C1042.92 53.9886 1042.79 54.0227 1042.63 54.0568C1042.47 54.0947 1042.26 54.1136 1042.01 54.1136C1041.63 54.1136 1041.26 54.0322 1040.9 53.8693C1040.54 53.7064 1040.24 53.4583 1040 53.125C1039.76 52.7917 1039.65 52.3712 1039.65 51.8636V43.1818ZM1044.87 54V45.2727H1046.21V54H1044.87ZM1045.55 43.8182C1045.29 43.8182 1045.06 43.7292 1044.87 43.5511C1044.69 43.3731 1044.6 43.1591 1044.6 42.9091C1044.6 42.6591 1044.69 42.4451 1044.87 42.267C1045.06 42.089 1045.29 42 1045.55 42C1045.81 42 1046.03 42.089 1046.22 42.267C1046.41 42.4451 1046.5 42.6591 1046.5 42.9091C1046.5 43.1591 1046.41 43.3731 1046.22 43.5511C1046.03 43.7292 1045.81 43.8182 1045.55 43.8182ZM1052.46 45.2727V46.4091H1047.94V45.2727H1052.46ZM1049.26 43.1818H1050.6V51.5C1050.6 51.8788 1050.65 52.1629 1050.76 52.3523C1050.88 52.5379 1051.02 52.6629 1051.19 52.7273C1051.37 52.7879 1051.56 52.8182 1051.76 52.8182C1051.9 52.8182 1052.02 52.8106 1052.12 52.7955C1052.21 52.7765 1052.29 52.7614 1052.35 52.75L1052.62 53.9545C1052.53 53.9886 1052.4 54.0227 1052.24 54.0568C1052.08 54.0947 1051.87 54.1136 1051.62 54.1136C1051.24 54.1136 1050.87 54.0322 1050.51 53.8693C1050.15 53.7064 1049.85 53.4583 1049.61 53.125C1049.37 52.7917 1049.26 52.3712 1049.26 51.8636V43.1818ZM1056.01 42.3636V54H1054.66V42.3636H1056.01ZM1062.12 54.1818C1061.28 54.1818 1060.55 53.9962 1059.94 53.625C1059.34 53.25 1058.87 52.7273 1058.54 52.0568C1058.22 51.3826 1058.05 50.5985 1058.05 49.7045C1058.05 48.8106 1058.22 48.0227 1058.54 47.3409C1058.87 46.6553 1059.33 46.1212 1059.92 45.7386C1060.51 45.3523 1061.2 45.1591 1061.98 45.1591C1062.44 45.1591 1062.89 45.2348 1063.33 45.3864C1063.77 45.5379 1064.18 45.7841 1064.54 46.125C1064.9 46.4621 1065.19 46.9091 1065.41 47.4659C1065.63 48.0227 1065.73 48.7083 1065.73 49.5227V50.0909H1059.01V48.9318H1064.37C1064.37 48.4394 1064.27 48 1064.08 47.6136C1063.88 47.2273 1063.61 46.9223 1063.25 46.6989C1062.89 46.4754 1062.47 46.3636 1061.98 46.3636C1061.45 46.3636 1060.99 46.4962 1060.6 46.7614C1060.21 47.0227 1059.91 47.3636 1059.71 47.7841C1059.5 48.2045 1059.39 48.6553 1059.39 49.1364V49.9091C1059.39 50.5682 1059.51 51.1269 1059.73 51.5852C1059.97 52.0398 1060.29 52.3864 1060.69 52.625C1061.1 52.8598 1061.58 52.9773 1062.12 52.9773C1062.47 52.9773 1062.79 52.928 1063.08 52.8295C1063.36 52.7273 1063.61 52.5758 1063.82 52.375C1064.03 52.1705 1064.19 51.9167 1064.3 51.6136L1065.6 51.9773C1065.46 52.4167 1065.23 52.803 1064.91 53.1364C1064.59 53.4659 1064.19 53.7235 1063.72 53.9091C1063.24 54.0909 1062.71 54.1818 1062.12 54.1818ZM1071.07 54.1818C1070.34 54.1818 1069.7 53.9981 1069.14 53.6307C1068.59 53.2595 1068.15 52.7367 1067.84 52.0625C1067.52 51.3845 1067.37 50.5833 1067.37 49.6591C1067.37 48.7424 1067.52 47.947 1067.84 47.2727C1068.15 46.5985 1068.59 46.0777 1069.15 45.7102C1069.71 45.3428 1070.36 45.1591 1071.09 45.1591C1071.66 45.1591 1072.11 45.2538 1072.44 45.4432C1072.77 45.6288 1073.03 45.8409 1073.2 46.0795C1073.38 46.3144 1073.52 46.5076 1073.62 46.6591H1073.73V42.3636H1075.07V54H1073.77V52.6591H1073.62C1073.52 52.8182 1073.38 53.0189 1073.19 53.2614C1073.01 53.5 1072.75 53.714 1072.42 53.9034C1072.08 54.089 1071.63 54.1818 1071.07 54.1818ZM1071.25 52.9773C1071.79 52.9773 1072.24 52.8371 1072.62 52.5568C1072.99 52.2727 1073.27 51.8807 1073.46 51.3807C1073.65 50.8769 1073.75 50.2955 1073.75 49.6364C1073.75 48.9848 1073.66 48.4148 1073.47 47.9261C1073.28 47.4337 1073 47.0511 1072.63 46.7784C1072.26 46.5019 1071.8 46.3636 1071.25 46.3636C1070.68 46.3636 1070.21 46.5095 1069.83 46.8011C1069.46 47.089 1069.17 47.4811 1068.98 47.9773C1068.8 48.4697 1068.71 49.0227 1068.71 49.6364C1068.71 50.2576 1068.8 50.822 1068.99 51.3295C1069.18 51.8333 1069.47 52.2348 1069.84 52.5341C1070.22 52.8295 1070.69 52.9773 1071.25 52.9773ZM1090.03 42.3636H1091.44V50.0682C1091.44 50.8636 1091.25 51.5739 1090.88 52.1989C1090.51 52.8201 1089.98 53.3106 1089.3 53.6705C1088.62 54.0265 1087.83 54.2045 1086.92 54.2045C1086 54.2045 1085.21 54.0265 1084.53 53.6705C1083.85 53.3106 1083.33 52.8201 1082.95 52.1989C1082.58 51.5739 1082.39 50.8636 1082.39 50.0682V42.3636H1083.8V49.9545C1083.8 50.5227 1083.93 51.0284 1084.18 51.4716C1084.43 51.911 1084.78 52.2576 1085.25 52.5114C1085.71 52.7614 1086.27 52.8864 1086.92 52.8864C1087.56 52.8864 1088.12 52.7614 1088.59 52.5114C1089.05 52.2576 1089.41 51.911 1089.65 51.4716C1089.9 51.0284 1090.03 50.5227 1090.03 49.9545V42.3636ZM1095.66 42.3636V54H1094.25V42.3636H1095.66ZM1099.28 54.0909C1099 54.0909 1098.76 53.9905 1098.56 53.7898C1098.36 53.589 1098.26 53.3485 1098.26 53.0682C1098.26 52.7879 1098.36 52.5473 1098.56 52.3466C1098.76 52.1458 1099 52.0455 1099.28 52.0455C1099.56 52.0455 1099.8 52.1458 1100 52.3466C1100.21 52.5473 1100.31 52.7879 1100.31 53.0682C1100.31 53.2538 1100.26 53.4242 1100.16 53.5795C1100.07 53.7348 1099.95 53.8598 1099.79 53.9545C1099.64 54.0455 1099.47 54.0909 1099.28 54.0909ZM1107.87 54H1106.39L1110.67 42.3636H1112.12L1116.39 54H1114.92L1111.44 44.2045H1111.35L1107.87 54ZM1108.42 49.4545H1114.37V50.7045H1108.42V49.4545ZM1119.37 42.3636V54H1118.02V42.3636H1119.37ZM1123.16 42.3636V54H1121.82V42.3636H1123.16ZM1130.12 54V45.2727H1131.41V46.5909H1131.5C1131.66 46.1591 1131.95 45.8087 1132.37 45.5398C1132.78 45.2708 1133.25 45.1364 1133.78 45.1364C1133.88 45.1364 1134 45.1383 1134.15 45.142C1134.29 45.1458 1134.41 45.1515 1134.48 45.1591V46.5227C1134.44 46.5114 1134.33 46.4943 1134.17 46.4716C1134.01 46.4451 1133.84 46.4318 1133.66 46.4318C1133.24 46.4318 1132.86 46.5208 1132.53 46.6989C1132.2 46.8731 1131.94 47.1155 1131.74 47.4261C1131.55 47.733 1131.46 48.0833 1131.46 48.4773V54H1130.12ZM1136.07 54V45.2727H1137.41V54H1136.07ZM1136.75 43.8182C1136.49 43.8182 1136.27 43.7292 1136.08 43.5511C1135.89 43.3731 1135.8 43.1591 1135.8 42.9091C1135.8 42.6591 1135.89 42.4451 1136.08 42.267C1136.27 42.089 1136.49 42 1136.75 42C1137.01 42 1137.24 42.089 1137.42 42.267C1137.61 42.4451 1137.71 42.6591 1137.71 42.9091C1137.71 43.1591 1137.61 43.3731 1137.42 43.5511C1137.24 43.7292 1137.01 43.8182 1136.75 43.8182ZM1143.39 57.4545C1142.74 57.4545 1142.19 57.3712 1141.72 57.2045C1141.25 57.0417 1140.87 56.8258 1140.56 56.5568C1140.25 56.2917 1140 56.0076 1139.82 55.7045L1140.89 54.9545C1141.01 55.1136 1141.17 55.2955 1141.35 55.5C1141.54 55.7083 1141.79 55.8883 1142.11 56.0398C1142.44 56.1951 1142.86 56.2727 1143.39 56.2727C1144.1 56.2727 1144.68 56.1023 1145.13 55.7614C1145.59 55.4205 1145.82 54.8864 1145.82 54.1591V52.3864H1145.71C1145.61 52.5455 1145.47 52.7424 1145.29 52.9773C1145.11 53.2083 1144.85 53.4148 1144.52 53.5966C1144.18 53.7746 1143.73 53.8636 1143.16 53.8636C1142.46 53.8636 1141.83 53.697 1141.27 53.3636C1140.71 53.0303 1140.27 52.5455 1139.94 51.9091C1139.62 51.2727 1139.46 50.5 1139.46 49.5909C1139.46 48.697 1139.62 47.9186 1139.93 47.2557C1140.24 46.589 1140.68 46.0739 1141.24 45.7102C1141.8 45.3428 1142.45 45.1591 1143.19 45.1591C1143.75 45.1591 1144.21 45.2538 1144.54 45.4432C1144.88 45.6288 1145.13 45.8409 1145.31 46.0795C1145.49 46.3144 1145.63 46.5076 1145.73 46.6591H1145.87V45.2727H1147.16V54.25C1147.16 55 1146.99 55.6098 1146.65 56.0795C1146.31 56.553 1145.86 56.8996 1145.29 57.1193C1144.72 57.3428 1144.09 57.4545 1143.39 57.4545ZM1143.35 52.6591C1143.88 52.6591 1144.34 52.536 1144.71 52.2898C1145.08 52.0436 1145.36 51.6894 1145.56 51.2273C1145.75 50.7652 1145.85 50.2121 1145.85 49.5682C1145.85 48.9394 1145.75 48.3845 1145.56 47.9034C1145.37 47.4223 1145.09 47.0455 1144.72 46.7727C1144.35 46.5 1143.89 46.3636 1143.35 46.3636C1142.78 46.3636 1142.3 46.5076 1141.92 46.7955C1141.55 47.0833 1141.27 47.4697 1141.08 47.9545C1140.89 48.4394 1140.8 48.9773 1140.8 49.5682C1140.8 50.1742 1140.89 50.7102 1141.08 51.1761C1141.28 51.6383 1141.56 52.0019 1141.94 52.267C1142.31 52.5284 1142.78 52.6591 1143.35 52.6591ZM1150.96 48.75V54H1149.62V42.3636H1150.96V46.6364H1151.07C1151.28 46.1856 1151.58 45.8277 1151.99 45.5625C1152.41 45.2936 1152.96 45.1591 1153.64 45.1591C1154.24 45.1591 1154.76 45.2784 1155.2 45.517C1155.65 45.7519 1156 46.1136 1156.24 46.6023C1156.49 47.0871 1156.62 47.7045 1156.62 48.4545V54H1155.28V48.5455C1155.28 47.8523 1155.1 47.3163 1154.74 46.9375C1154.38 46.5549 1153.89 46.3636 1153.25 46.3636C1152.81 46.3636 1152.42 46.4564 1152.07 46.642C1151.73 46.8277 1151.46 47.0985 1151.25 47.4545C1151.06 47.8106 1150.96 48.2424 1150.96 48.75ZM1162.87 45.2727V46.4091H1158.34V45.2727H1162.87ZM1159.66 43.1818H1161V51.5C1161 51.8788 1161.06 52.1629 1161.17 52.3523C1161.28 52.5379 1161.43 52.6629 1161.6 52.7273C1161.78 52.7879 1161.96 52.8182 1162.16 52.8182C1162.31 52.8182 1162.43 52.8106 1162.53 52.7955C1162.62 52.7765 1162.7 52.7614 1162.75 52.75L1163.03 53.9545C1162.93 53.9886 1162.81 54.0227 1162.64 54.0568C1162.48 54.0947 1162.28 54.1136 1162.03 54.1136C1161.65 54.1136 1161.28 54.0322 1160.91 53.8693C1160.55 53.7064 1160.25 53.4583 1160.01 53.125C1159.78 52.7917 1159.66 52.3712 1159.66 51.8636V43.1818ZM1170.91 47.2273L1169.7 47.5682C1169.63 47.3674 1169.52 47.1723 1169.37 46.983C1169.23 46.7898 1169.03 46.6307 1168.78 46.5057C1168.53 46.3807 1168.21 46.3182 1167.82 46.3182C1167.28 46.3182 1166.84 46.4413 1166.48 46.6875C1166.13 46.9299 1165.95 47.2386 1165.95 47.6136C1165.95 47.947 1166.08 48.2102 1166.32 48.4034C1166.56 48.5966 1166.94 48.7576 1167.45 48.8864L1168.75 49.2045C1169.53 49.3939 1170.11 49.6837 1170.49 50.0739C1170.88 50.4602 1171.07 50.9583 1171.07 51.5682C1171.07 52.0682 1170.92 52.5152 1170.64 52.9091C1170.35 53.303 1169.95 53.6136 1169.44 53.8409C1168.93 54.0682 1168.34 54.1818 1167.66 54.1818C1166.77 54.1818 1166.03 53.9886 1165.45 53.6023C1164.87 53.2159 1164.5 52.6515 1164.34 51.9091L1165.61 51.5909C1165.73 52.0606 1165.96 52.4129 1166.3 52.6477C1166.64 52.8826 1167.09 53 1167.64 53C1168.26 53 1168.76 52.8674 1169.12 52.6023C1169.5 52.3333 1169.68 52.0114 1169.68 51.6364C1169.68 51.3333 1169.58 51.0795 1169.36 50.875C1169.15 50.6667 1168.83 50.5114 1168.39 50.4091L1166.93 50.0682C1166.13 49.8788 1165.55 49.5852 1165.17 49.1875C1164.8 48.786 1164.61 48.2841 1164.61 47.6818C1164.61 47.1894 1164.75 46.7538 1165.03 46.375C1165.31 45.9962 1165.69 45.6989 1166.17 45.483C1166.66 45.267 1167.2 45.1591 1167.82 45.1591C1168.68 45.1591 1169.36 45.3485 1169.85 45.7273C1170.35 46.1061 1170.7 46.6061 1170.91 47.2273ZM1177.59 54V45.2727H1178.88V46.5909H1178.97C1179.13 46.1591 1179.42 45.8087 1179.84 45.5398C1180.25 45.2708 1180.72 45.1364 1181.25 45.1364C1181.34 45.1364 1181.47 45.1383 1181.62 45.142C1181.76 45.1458 1181.87 45.1515 1181.95 45.1591V46.5227C1181.9 46.5114 1181.8 46.4943 1181.64 46.4716C1181.48 46.4451 1181.31 46.4318 1181.13 46.4318C1180.71 46.4318 1180.33 46.5208 1180 46.6989C1179.67 46.8731 1179.4 47.1155 1179.21 47.4261C1179.02 47.733 1178.93 48.0833 1178.93 48.4773V54H1177.59ZM1186.93 54.1818C1186.09 54.1818 1185.37 53.9962 1184.76 53.625C1184.15 53.25 1183.68 52.7273 1183.35 52.0568C1183.03 51.3826 1182.87 50.5985 1182.87 49.7045C1182.87 48.8106 1183.03 48.0227 1183.35 47.3409C1183.68 46.6553 1184.14 46.1212 1184.73 45.7386C1185.32 45.3523 1186.01 45.1591 1186.8 45.1591C1187.25 45.1591 1187.7 45.2348 1188.14 45.3864C1188.59 45.5379 1188.99 45.7841 1189.35 46.125C1189.72 46.4621 1190.01 46.9091 1190.22 47.4659C1190.44 48.0227 1190.55 48.7083 1190.55 49.5227V50.0909H1183.82V48.9318H1189.18C1189.18 48.4394 1189.08 48 1188.89 47.6136C1188.69 47.2273 1188.42 46.9223 1188.06 46.6989C1187.7 46.4754 1187.28 46.3636 1186.8 46.3636C1186.26 46.3636 1185.8 46.4962 1185.41 46.7614C1185.02 47.0227 1184.73 47.3636 1184.52 47.7841C1184.31 48.2045 1184.21 48.6553 1184.21 49.1364V49.9091C1184.21 50.5682 1184.32 51.1269 1184.55 51.5852C1184.78 52.0398 1185.1 52.3864 1185.51 52.625C1185.92 52.8598 1186.39 52.9773 1186.93 52.9773C1187.29 52.9773 1187.6 52.928 1187.89 52.8295C1188.18 52.7273 1188.42 52.5758 1188.63 52.375C1188.84 52.1705 1189 51.9167 1189.12 51.6136L1190.41 51.9773C1190.27 52.4167 1190.04 52.803 1189.72 53.1364C1189.4 53.4659 1189 53.7235 1188.53 53.9091C1188.06 54.0909 1187.52 54.1818 1186.93 54.1818ZM1198.77 47.2273L1197.56 47.5682C1197.49 47.3674 1197.38 47.1723 1197.23 46.983C1197.08 46.7898 1196.89 46.6307 1196.64 46.5057C1196.39 46.3807 1196.07 46.3182 1195.68 46.3182C1195.14 46.3182 1194.7 46.4413 1194.34 46.6875C1193.99 46.9299 1193.81 47.2386 1193.81 47.6136C1193.81 47.947 1193.94 48.2102 1194.18 48.4034C1194.42 48.5966 1194.8 48.7576 1195.31 48.8864L1196.61 49.2045C1197.39 49.3939 1197.97 49.6837 1198.35 50.0739C1198.74 50.4602 1198.93 50.9583 1198.93 51.5682C1198.93 52.0682 1198.78 52.5152 1198.5 52.9091C1198.21 53.303 1197.81 53.6136 1197.3 53.8409C1196.79 54.0682 1196.2 54.1818 1195.52 54.1818C1194.63 54.1818 1193.89 53.9886 1193.31 53.6023C1192.72 53.2159 1192.36 52.6515 1192.2 51.9091L1193.47 51.5909C1193.59 52.0606 1193.82 52.4129 1194.16 52.6477C1194.5 52.8826 1194.95 53 1195.5 53C1196.12 53 1196.62 52.8674 1196.98 52.6023C1197.36 52.3333 1197.54 52.0114 1197.54 51.6364C1197.54 51.3333 1197.44 51.0795 1197.22 50.875C1197.01 50.6667 1196.69 50.5114 1196.25 50.4091L1194.79 50.0682C1193.99 49.8788 1193.4 49.5852 1193.03 49.1875C1192.66 48.786 1192.47 48.2841 1192.47 47.6818C1192.47 47.1894 1192.61 46.7538 1192.89 46.375C1193.17 45.9962 1193.55 45.6989 1194.03 45.483C1194.51 45.267 1195.06 45.1591 1195.68 45.1591C1196.54 45.1591 1197.22 45.3485 1197.71 45.7273C1198.21 46.1061 1198.56 46.6061 1198.77 47.2273ZM1204.61 54.1818C1203.76 54.1818 1203.04 53.9962 1202.43 53.625C1201.82 53.25 1201.36 52.7273 1201.03 52.0568C1200.7 51.3826 1200.54 50.5985 1200.54 49.7045C1200.54 48.8106 1200.7 48.0227 1201.03 47.3409C1201.36 46.6553 1201.81 46.1212 1202.4 45.7386C1202.99 45.3523 1203.68 45.1591 1204.47 45.1591C1204.92 45.1591 1205.37 45.2348 1205.82 45.3864C1206.26 45.5379 1206.66 45.7841 1207.03 46.125C1207.39 46.4621 1207.68 46.9091 1207.89 47.4659C1208.11 48.0227 1208.22 48.7083 1208.22 49.5227V50.0909H1201.49V48.9318H1206.86C1206.86 48.4394 1206.76 48 1206.56 47.6136C1206.37 47.2273 1206.09 46.9223 1205.73 46.6989C1205.37 46.4754 1204.95 46.3636 1204.47 46.3636C1203.93 46.3636 1203.47 46.4962 1203.08 46.7614C1202.7 47.0227 1202.4 47.3636 1202.19 47.7841C1201.98 48.2045 1201.88 48.6553 1201.88 49.1364V49.9091C1201.88 50.5682 1201.99 51.1269 1202.22 51.5852C1202.45 52.0398 1202.77 52.3864 1203.18 52.625C1203.59 52.8598 1204.06 52.9773 1204.61 52.9773C1204.96 52.9773 1205.28 52.928 1205.56 52.8295C1205.85 52.7273 1206.1 52.5758 1206.3 52.375C1206.51 52.1705 1206.67 51.9167 1206.79 51.6136L1208.08 51.9773C1207.95 52.4167 1207.72 52.803 1207.39 53.1364C1207.07 53.4659 1206.68 53.7235 1206.2 53.9091C1205.73 54.0909 1205.2 54.1818 1204.61 54.1818ZM1210.26 54V45.2727H1211.55V46.5909H1211.64C1211.8 46.1591 1212.09 45.8087 1212.51 45.5398C1212.93 45.2708 1213.39 45.1364 1213.92 45.1364C1214.02 45.1364 1214.14 45.1383 1214.29 45.142C1214.43 45.1458 1214.55 45.1515 1214.62 45.1591V46.5227C1214.58 46.5114 1214.47 46.4943 1214.31 46.4716C1214.15 46.4451 1213.98 46.4318 1213.8 46.4318C1213.38 46.4318 1213 46.5208 1212.67 46.6989C1212.34 46.8731 1212.08 47.1155 1211.88 47.4261C1211.69 47.733 1211.6 48.0833 1211.6 48.4773V54H1210.26ZM1223.61 45.2727L1220.39 54H1219.02L1215.8 45.2727H1217.25L1219.66 52.2273H1219.75L1222.16 45.2727H1223.61ZM1228.73 54.1818C1227.89 54.1818 1227.16 53.9962 1226.55 53.625C1225.95 53.25 1225.48 52.7273 1225.15 52.0568C1224.82 51.3826 1224.66 50.5985 1224.66 49.7045C1224.66 48.8106 1224.82 48.0227 1225.15 47.3409C1225.48 46.6553 1225.94 46.1212 1226.53 45.7386C1227.12 45.3523 1227.81 45.1591 1228.59 45.1591C1229.05 45.1591 1229.5 45.2348 1229.94 45.3864C1230.38 45.5379 1230.79 45.7841 1231.15 46.125C1231.51 46.4621 1231.8 46.9091 1232.02 47.4659C1232.24 48.0227 1232.34 48.7083 1232.34 49.5227V50.0909H1225.62V48.9318H1230.98C1230.98 48.4394 1230.88 48 1230.68 47.6136C1230.49 47.2273 1230.21 46.9223 1229.86 46.6989C1229.5 46.4754 1229.08 46.3636 1228.59 46.3636C1228.06 46.3636 1227.6 46.4962 1227.21 46.7614C1226.82 47.0227 1226.52 47.3636 1226.32 47.7841C1226.11 48.2045 1226 48.6553 1226 49.1364V49.9091C1226 50.5682 1226.12 51.1269 1226.34 51.5852C1226.57 52.0398 1226.89 52.3864 1227.3 52.625C1227.71 52.8598 1228.19 52.9773 1228.73 52.9773C1229.08 52.9773 1229.4 52.928 1229.68 52.8295C1229.97 52.7273 1230.22 52.5758 1230.43 52.375C1230.64 52.1705 1230.8 51.9167 1230.91 51.6136L1232.21 51.9773C1232.07 52.4167 1231.84 52.803 1231.52 53.1364C1231.2 53.4659 1230.8 53.7235 1230.33 53.9091C1229.85 54.0909 1229.32 54.1818 1228.73 54.1818ZM1237.68 54.1818C1236.95 54.1818 1236.31 53.9981 1235.75 53.6307C1235.2 53.2595 1234.76 52.7367 1234.45 52.0625C1234.13 51.3845 1233.97 50.5833 1233.97 49.6591C1233.97 48.7424 1234.13 47.947 1234.45 47.2727C1234.76 46.5985 1235.2 46.0777 1235.76 45.7102C1236.32 45.3428 1236.97 45.1591 1237.7 45.1591C1238.27 45.1591 1238.72 45.2538 1239.05 45.4432C1239.38 45.6288 1239.64 45.8409 1239.81 46.0795C1239.99 46.3144 1240.13 46.5076 1240.22 46.6591H1240.34V42.3636H1241.68V54H1240.38V52.6591H1240.22C1240.13 52.8182 1239.99 53.0189 1239.8 53.2614C1239.62 53.5 1239.36 53.714 1239.03 53.9034C1238.69 54.089 1238.24 54.1818 1237.68 54.1818ZM1237.86 52.9773C1238.4 52.9773 1238.85 52.8371 1239.22 52.5568C1239.6 52.2727 1239.88 51.8807 1240.07 51.3807C1240.26 50.8769 1240.36 50.2955 1240.36 49.6364C1240.36 48.9848 1240.27 48.4148 1240.08 47.9261C1239.89 47.4337 1239.61 47.0511 1239.24 46.7784C1238.86 46.5019 1238.41 46.3636 1237.86 46.3636C1237.29 46.3636 1236.82 46.5095 1236.44 46.8011C1236.07 47.089 1235.78 47.4811 1235.59 47.9773C1235.41 48.4697 1235.32 49.0227 1235.32 49.6364C1235.32 50.2576 1235.41 50.822 1235.6 51.3295C1235.79 51.8333 1236.08 52.2348 1236.45 52.5341C1236.83 52.8295 1237.3 52.9773 1237.86 52.9773ZM1245.3 54.0909C1245.02 54.0909 1244.78 53.9905 1244.58 53.7898C1244.38 53.589 1244.28 53.3485 1244.28 53.0682C1244.28 52.7879 1244.38 52.5473 1244.58 52.3466C1244.78 52.1458 1245.02 52.0455 1245.3 52.0455C1245.58 52.0455 1245.82 52.1458 1246.02 52.3466C1246.22 52.5473 1246.32 52.7879 1246.32 53.0682C1246.32 53.2538 1246.27 53.4242 1246.18 53.5795C1246.09 53.7348 1245.96 53.8598 1245.81 53.9545C1245.66 54.0455 1245.49 54.0909 1245.3 54.0909Z" fill="#D6BBFB"/>
<defs>
<filter id="filter0_dddi_1_4927" x="29" y="30" width="38" height="38" filterUnits="userSpaceOnUse" color-interpolation-filters="sRGB">
<feFlood flood-opacity="0" result="BackgroundImageFix"/>
<feColorMatrix in="SourceAlpha" type="matrix" values="0 0 0 0 0 0 0 0 0 0 0 0 0 0 0 0 0 0 127 0" result="hardAlpha"/>
<feOffset dy="1"/>
<feGaussianBlur stdDeviation="1"/>
<feColorMatrix type="matrix" values="0 0 0 0 0.0392157 0 0 0 0 0.0509804 0 0 0 0 0.0705882 0 0 0 0.06 0"/>
<feBlend mode="normal" in2="BackgroundImageFix" result="effect1_dropShadow_1_4927"/>
<feColorMatrix in="SourceAlpha" type="matrix" values="0 0 0 0 0 0 0 0 0 0 0 0 0 0 0 0 0 0 127 0" result="hardAlpha"/>
<feOffset dy="1"/>
<feGaussianBlur stdDeviation="1.5"/>
<feColorMatrix type="matrix" values="0 0 0 0 0.0392157 0 0 0 0 0.0509804 0 0 0 0 0.0705882 0 0 0 0.1 0"/>
<feBlend mode="normal" in2="effect1_dropShadow_1_4927" result="effect2_dropShadow_1_4927"/>
<feColorMatrix in="SourceAlpha" type="matrix" values="0 0 0 0 0 0 0 0 0 0 0 0 0 0 0 0 0 0 127 0" result="hardAlpha"/>
<feMorphology radius="0.5" operator="erode" in="SourceAlpha" result="effect3_dropShadow_1_4927"/>
<feOffset dy="1"/>
<feGaussianBlur stdDeviation="0.5"/>
<feComposite in2="hardAlpha" operator="out"/>
<feColorMatrix type="matrix" values="0 0 0 0 0.0392157 0 0 0 0 0.0509804 0 0 0 0 0.0705882 0 0 0 0.13 0"/>
<feBlend mode="normal" in2="effect2_dropShadow_1_4927" result="effect3_dropShadow_1_4927"/>
<feBlend mode="normal" in="SourceGraphic" in2="effect3_dropShadow_1_4927" result="shape"/>
<feColorMatrix in="SourceAlpha" type="matrix" values="0 0 0 0 0 0 0 0 0 0 0 0 0 0 0 0 0 0 127 0" result="hardAlpha"/>
<feOffset dy="-0.5"/>
<feGaussianBlur stdDeviation="0.25"/>
<feComposite in2="hardAlpha" operator="arithmetic" k2="-1" k3="1"/>
<feColorMatrix type="matrix" values="0 0 0 0 0.0392157 0 0 0 0 0.0509804 0 0 0 0 0.0705882 0 0 0 0.1 0"/>
<feBlend mode="normal" in2="shape" result="effect4_innerShadow_1_4927"/>
</filter>
<filter id="filter1_dd_1_4927" x="37" y="38" width="22" height="22" filterUnits="userSpaceOnUse" color-interpolation-filters="sRGB">
<feFlood flood-opacity="0" result="BackgroundImageFix"/>
<feColorMatrix in="SourceAlpha" type="matrix" values="0 0 0 0 0 0 0 0 0 0 0 0 0 0 0 0 0 0 127 0" result="hardAlpha"/>
<feOffset dy="1"/>
<feGaussianBlur stdDeviation="1"/>
<feColorMatrix type="matrix" values="0 0 0 0 0.0392157 0 0 0 0 0.0509804 0 0 0 0 0.0705882 0 0 0 0.06 0"/>
<feBlend mode="normal" in2="BackgroundImageFix" result="effect1_dropShadow_1_4927"/>
<feColorMatrix in="SourceAlpha" type="matrix" values="0 0 0 0 0 0 0 0 0 0 0 0 0 0 0 0 0 0 127 0" result="hardAlpha"/>
<feOffset dy="1"/>
<feGaussianBlur stdDeviation="1.5"/>
<feColorMatrix type="matrix" values="0 0 0 0 0.0392157 0 0 0 0 0.0509804 0 0 0 0 0.0705882 0 0 0 0.1 0"/>
<feBlend mode="normal" in2="effect1_dropShadow_1_4927" result="effect2_dropShadow_1_4927"/>
<feBlend mode="normal" in="SourceGraphic" in2="effect2_dropShadow_1_4927" result="shape"/>
</filter>
<filter id="filter2_b_1_4927" x="27" y="43" width="42" height="26" filterUnits="userSpaceOnUse" color-interpolation-filters="sRGB">
<feFlood flood-opacity="0" result="BackgroundImageFix"/>
<feGaussianBlur in="BackgroundImageFix" stdDeviation="2.5"/>
<feComposite in2="SourceAlpha" operator="in" result="effect1_backgroundBlur_1_4927"/>
<feBlend mode="normal" in="SourceGraphic" in2="effect1_backgroundBlur_1_4927" result="shape"/>
</filter>
<linearGradient id="paint0_linear_1_4927" x1="48" y1="32" x2="48" y2="64" gradientUnits="userSpaceOnUse">
<stop stop-color="white"/>
<stop offset="1" stop-color="#0A0D12"/>
</linearGradient>
<linearGradient id="paint1_linear_1_4927" x1="44" y1="56" x2="52" y2="40" gradientUnits="userSpaceOnUse">
<stop stop-color="#53389E"/>
<stop offset="1" stop-color="#6941C6"/>
</linearGradient>
<radialGradient id="paint2_radial_1_4927" cx="0" cy="0" r="1" gradientUnits="userSpaceOnUse" gradientTransform="translate(48 40) rotate(90) scale(12)">
<stop stop-color="white" stop-opacity="0"/>
<stop offset="0.5" stop-color="white" stop-opacity="0"/>
<stop offset="0.99" stop-color="white"/>
<stop offset="1" stop-color="white" stop-opacity="0"/>
</radialGradient>
<radialGradient id="paint3_radial_1_4927" cx="0" cy="0" r="1" gradientUnits="userSpaceOnUse" gradientTransform="translate(48 48) rotate(90) scale(8)">
<stop offset="0.746599" stop-color="white" stop-opacity="0"/>
<stop offset="1" stop-color="white"/>
</radialGradient>
<radialGradient id="paint4_radial_1_4927" cx="0" cy="0" r="1" gradientUnits="userSpaceOnUse" gradientTransform="translate(48 44.6) rotate(90) scale(7)">
<stop stop-color="white"/>
<stop offset="1" stop-color="white" stop-opacity="0"/>
</radialGradient>
<linearGradient id="paint5_linear_1_4927" x1="48" y1="41.6" x2="48" y2="44.8" gradientUnits="userSpaceOnUse">
<stop stop-color="white"/>
<stop offset="1" stop-color="white" stop-opacity="0.1"/>
</linearGradient>
<clipPath id="clip0_1_4927">
<path d="M32 44.8C32 40.3196 32 38.0794 32.8719 36.3681C33.6389 34.8628 34.8628 33.6389 36.3681 32.8719C38.0794 32 40.3196 32 44.8 32H51.2C55.6804 32 57.9206 32 59.6319 32.8719C61.1372 33.6389 62.3611 34.8628 63.1281 36.3681C64 38.0794 64 40.3196 64 44.8V51.2C64 55.6804 64 57.9206 63.1281 59.6319C62.3611 61.1372 61.1372 62.3611 59.6319 63.1281C57.9206 64 55.6804 64 51.2 64H44.8C40.3196 64 38.0794 64 36.3681 63.1281C34.8628 62.3611 33.6389 61.1372 32.8719 59.6319C32 57.9206 32 55.6804 32 51.2V44.8Z" fill="white"/>
</clipPath>
<clipPath id="clip1_1_4927">
<rect width="32" height="32" fill="white" transform="translate(32 32)"/>
</clipPath>
</defs>
</svg>
